<svg xmlns="http://www.w3.org/2000/svg" width="161.5" height="32.686" viewBox="0 0 161.5 32.686">
  <g id="Group_42" data-name="Group 42" transform="translate(-914.25 -501.454)">
    <line id="Line_3" data-name="Line 3" x2="58" transform="translate(915.5 527.5)" fill="none" stroke="#ececec" stroke-linecap="round" stroke-width="2.5"/>
    <line id="Line_4" data-name="Line 4" x2="58" transform="translate(1016.5 527.5)" fill="none" stroke="#ececec" stroke-linecap="round" stroke-width="2.5"/>
    <g id="lotus-flower" transform="translate(976 464.523)">
      <path id="Path_11" data-name="Path 11" d="M289.691,370.607a11.423,11.423,0,0,0,1.329.918,10.971,10.971,0,0,0,6.6,1.515.634.634,0,0,0,.518-.886,10.923,10.923,0,0,0-3.951-4.7l-3.972.516Z" transform="translate(-268.08 -305.868)" fill="#2e2e2e"/>
      <path id="Path_12" data-name="Path 12" d="M117.462,370.607a11.419,11.419,0,0,1-1.329.918,10.971,10.971,0,0,1-6.6,1.515.634.634,0,0,1-.518-.886,10.923,10.923,0,0,1,3.951-4.7l3.972.516Z" transform="translate(-100.834 -305.868)" fill="#2e2e2e"/>
      <path id="Path_13" data-name="Path 13" d="M27.51,144.333a.633.633,0,0,0-.748.672,15.027,15.027,0,0,0,12.945,13.654,15.027,15.027,0,0,0-12.2-14.325Z" transform="translate(-24.765 -99.381)" fill="#d5d5d5"/>
      <path id="Path_14" data-name="Path 14" d="M17.833,236.452a14.848,14.848,0,0,0-9.059-1.9l-.274.729a13.479,13.479,0,0,0,6.005,6.9c3.267,1.865,6.7,2.832,9.994,2.175A14.774,14.774,0,0,0,17.833,236.452Z" transform="translate(-7.866 -182.795)" fill="#ececec"/>
      <path id="Path_15" data-name="Path 15" d="M7.33,243.032a14.821,14.821,0,0,1-6.423-7.307c-.12.014-.241.029-.36.046a.632.632,0,0,0-.5.873,15.027,15.027,0,0,0,16.584,8.886c-.072-.2-.162-.4-.243-.606A14.842,14.842,0,0,1,7.33,243.032Z" transform="translate(0 -183.964)" fill="#d5d5d5"/>
      <path id="Path_16" data-name="Path 16" d="M323.9,144.333a15.027,15.027,0,0,0-12.2,14.325l11.735-8.838A14.542,14.542,0,0,0,324.643,145,.633.633,0,0,0,323.9,144.333Z" transform="translate(-288.445 -99.38)" fill="#fff"/>
      <path id="Path_17" data-name="Path 17" d="M320.839,222.013a15.167,15.167,0,0,0,2.594-4,16.291,16.291,0,0,0-11.177,5.133,14.349,14.349,0,0,0-.559,3.705A14.773,14.773,0,0,0,320.839,222.013Z" transform="translate(-288.445 -167.575)" fill="#ececec"/>
      <path id="Path_18" data-name="Path 18" d="M305.119,234.6a.632.632,0,0,1,.5.873,15.027,15.027,0,0,1-16.584,8.886,15.027,15.027,0,0,1,16.086-9.759Z" transform="translate(-267.471 -182.795)" fill="#fff"/>
      <path id="Path_19" data-name="Path 19" d="M190.9,41.33l-.737-.164c-3.248,2.505-5.415,5.691-5.415,9.313l5.324,7.69L195.7,50.4C195.7,46.945,193.89,43.788,190.9,41.33Z" transform="translate(-170.968 -3.92)" fill="#fff"/>
      <path id="Path_20" data-name="Path 20" d="M182.042,46.452c.133-3.53,2.144-6.679,5.343-9.042-.143-.118-.286-.236-.435-.351a.633.633,0,0,0-.766,0c-3.248,2.505-5.235,5.8-5.235,9.423Z" transform="translate(-167.451)" fill="#ececec"/>
      <path id="Path_21" data-name="Path 21" d="M122.973,96.436a14.372,14.372,0,0,0-7.933-7l-.956.3a14.727,14.727,0,0,0,.97,9.549l5.524,3.55,2.395-6.4Z" transform="translate(-105.207 -48.589)" fill="#ececec"/>
      <path id="Path_22" data-name="Path 22" d="M109.633,96.343a14.619,14.619,0,0,1-.7-9.923c-.2-.076-.408-.146-.616-.214a.621.621,0,0,0-.788.44,14.537,14.537,0,0,0,.821,9.5Z" transform="translate(-99.096 -45.573)" fill="#d5d5d5"/>
      <path id="Path_23" data-name="Path 23" d="M275.792,93.42h0a14.428,14.428,0,0,1,8.549-7.213.621.621,0,0,1,.788.44,14.712,14.712,0,0,1-.147,7.695l-6.8,5.481Z" transform="translate(-255.218 -45.573)" fill="#ececec"/>
      <path id="Path_24" data-name="Path 24" d="M298.6,199.239l.694,1.854,6.122-3.674a14.08,14.08,0,0,0,.674-1.807A14.178,14.178,0,0,0,298.6,199.239Z" transform="translate(-276.322 -146.844)" fill="#d5d5d5"/>
      <path id="Path_25" data-name="Path 25" d="M195.523,167.2l-.9-.118a11.79,11.79,0,0,0-4.955,9.443l4.957,7.459,5.628-7.767C200.251,172.788,198.47,169.651,195.523,167.2Z" transform="translate(-175.517 -120.443)" fill="#d5d5d5"/>
      <path id="Path_26" data-name="Path 26" d="M181.982,171.348c.081-3.63,2.156-6.887,5.474-9.321q-.248-.206-.506-.406a.633.633,0,0,0-.766,0c-3.248,2.505-5.235,5.8-5.235,9.423Z" transform="translate(-167.45 -115.269)" fill="#b8b8b8"/>
      <path id="Path_27" data-name="Path 27" d="M214.418,388.315a8.952,8.952,0,0,0,2.686,6.292.615.615,0,0,0,.869,0,8.952,8.952,0,0,0,2.686-6.292Z" transform="translate(-198.423 -325.171)" fill="#1e1e1e"/>
      <path id="Path_28" data-name="Path 28" d="M269.112,209.438a.625.625,0,0,1,.622.622,12.861,12.861,0,0,1-13.742,13.12,12.861,12.861,0,0,1,13.12-13.742Z" transform="translate(-236.885 -159.638)" fill="#ececec"/>
      <path id="Path_29" data-name="Path 29" d="M72.529,209.438a.625.625,0,0,0-.622.622,12.861,12.861,0,0,0,13.742,13.12,12.861,12.861,0,0,0-13.12-13.742Z" transform="translate(-66.543 -159.638)" fill="#b8b8b8"/>
    </g>
  </g>
</svg>
